# xmcd
#
# Track frame offsets: 
#        150
#        30069
#        55125
#        80192
#        105405
#        124835
#        154391
#
# Disc length: 2449 seconds
#
# Revision: 5
# Processed by: cddbd v1.5.2PL0 Copyright (c) Steve Scherf et al.
# Submitted via: ExactAudioCopy v0.99pb4
#
DISCID=4f098f07
DTITLE=Isaac Hayes - Chocolate Chip
DYEAR=1975
DGENRE=Soul
TTITLE0=That Loving Feeling
TTITLE1=Body Language
TTITLE2=Chocolate Chip
TTITLE3=Chocolate Chip (Instrumental)
TTITLE4=I Want To Make Love To You So Bad
TTITLE5=Come Live With Me
TTITLE6=I Can't Turn Around
EXTD=Stax  © 1998\nProduced and arranged by Isaac Hayes\nRecordet at H
EXTD=ot Buttered Soul Recording Studios, Memphis, Tennessee - Spring 1
EXTD=975\nRemastering 1998 by Kirk Felton (Fantasy Studios, Berkeley]\n
EXTD=\nRHYTHM BY THE MOVEMENT:\nIsaac Hayes - acoustic and electric pi
EXTD=ano, RMI keyboard computer, concert bells, vocals\nLester Snell -
EXTD=Fender Rhodes, RMI keyboards\nCharles "Skip" Pitts - guitar\nWil
EXTD=liam "Boots" Vaughn - 2nd guitar\nErroll Thomas - bass guitar\nWi
EXTD=llie Hall - drums\nWillie Cole - percussion (drums on track 5]\nJ
EXTD=immy "Congalou" Thompson - congas\n\nHORNS BY THE MOVEMENT:\nTomm
EXTD=y Lee Williams, Lewis Collins, Darrell Smith - tenor saxophones, 
EXTD=flutes\nEmerson Able, Bill Easley (solo on track 1) - alto saxoph
EXTD=ones, flutes\nFloyd Newman - baritone saxophone, flute\nJackie Th
EXTD=omas, Jack Hale - trombones\nMickey "Shine" Gregory, William "Noo
EXTD=kie" Taylor, Ben Cauley - trumpets\nMasqueraders - background voc
EXTD=als (tracks 2, 3)
EXTT0=
EXTT1=
EXTT2=
EXTT3=
EXTT4=
EXTT5=
EXTT6=
PLAYORDER=
